<svg xmlns="http://www.w3.org/2000/svg" width="32" height="32" viewBox="0 0 32 32">
  <circle cx="16" cy="16" r="16" fill="#1e40af"/>
  <path d="M16 6c-5.5 0-10 4.5-10 10s4.5 10 10 10 10-4.5 10-10S21.5 6 16 6zm0 18c-4.4 0-8-3.6-8-8s3.6-8 8-8 8 3.6 8 8-3.6 8-8 8z" fill="#ffffff"/>
  <path d="M15 11h2v2h1.5c1.1 0 2 .9 2 2s-.9 2-2 2H17v2h1c.6 0 1 .4 1 1s-.4 1-1 1h-1v1h-2v-1h-1.5c-1.1 0-2-.9-2-2s.9-2 2-2H15v-2h-1c-.6 0-1-.4-1-1s.4-1 1-1h1v-1zm2 4h1.5c.3 0 .5-.2.5-.5s-.2-.5-.5-.5H17v1zm-2 4h-1.5c-.3 0-.5.2-.5.5s.2.5.5.5H15v-1z" fill="#ffffff"/>
</svg> 